<svg width="409" height="15" viewBox="0 0 409 15" fill="none" xmlns="http://www.w3.org/2000/svg">
<path d="M45.5695 1.85785H32.4862C16.7192 1.85785 8.86916 2.60407 6.25252 5.76601L3.63586 8.97854C1.01919 12.1405 7.5944 12.8867 23.2944 12.8867H44.2948C61.8733 12.8867 66.8383 11.4575 68.1802 9.62359L68.9853 8.58647H51.3396C50.2661 9.92713 47.6494 10.0663 39.7995 10.0663H28.2593C19.8726 10.0663 18.7991 9.47182 20.1409 7.89083L21.2144 6.80312C22.2879 5.46247 24.9046 4.62772 34.0965 4.62772H45.905C50.6016 4.62772 53.2182 4.83008 53.2182 5.42452V5.47511H70.7969V5.42452C70.7969 5.13362 71.0653 4.93126 71.0653 4.62772C71.2665 2.50289 66.5699 1.85785 45.5695 1.85785ZM127.96 8.58647C135.274 8.19439 137.421 7.2964 138.696 5.8166L139.233 5.12098C140.776 3.14792 138.696 1.80725 127.156 1.80725H81.5318L72.6084 12.8867H88.3758L90.724 10.0157H111.724C116.421 10.0157 117.494 10.4077 116.689 11.546L115.616 12.9246H132.658L134.201 11.0401C135.542 9.2315 132.121 8.78884 127.96 8.58647ZM122.191 5.76601L121.923 6.1075C121.385 6.90431 119.574 7.2964 115.348 7.2964H93.0722L95.1522 4.62772H116.152C120.849 4.57712 122.728 4.77949 122.191 5.76601Z" fill="black"/>
<path d="M269.596 1.80725L264.631 4.57712H281.137L274.561 12.9373H289.523L296.367 4.57712H316.83L321.795 1.80725H269.596ZM214.244 12.9373H229.206L231.823 9.42122H252.286L256.983 6.85372H233.902L235.714 4.57712H257.989L263.223 1.85785H222.832L214.244 12.9373ZM171.773 1.85785L136.347 12.9373H153.121L159.16 10.9643H189.62L192.774 12.9373H209.547L191.432 1.85785H171.773ZM166.473 8.58647L179.354 4.438L185.93 8.58647H166.473Z" fill="black"/>
<path d="M360.844 1.95906C360.039 2.70528 356.147 3.19856 352.189 3.04677C348.23 2.895 345.614 2.16143 346.418 1.41522C347.223 0.668998 351.115 0.175735 355.074 0.327508C359.032 0.529873 361.649 1.21285 360.844 1.95906ZM382.918 5.52575C382.113 6.27197 378.221 6.76523 374.263 6.61344C370.304 6.46167 367.687 5.72811 368.492 4.98189C369.298 4.23567 373.189 3.7424 377.147 3.89418C381.039 4.03331 383.656 4.77953 382.918 5.52575ZM405.461 9.07976C404.656 9.82598 400.764 10.3193 396.806 10.1675C392.848 10.0157 390.231 9.28214 391.036 8.53592C391.841 7.7897 395.733 7.29642 399.691 7.44821C403.918 7.65057 406.267 8.33355 405.461 9.07976ZM383.454 10.9137C382.381 11.9508 376.879 12.6464 371.646 12.3935C366.144 12.1911 362.454 11.154 363.796 10.1169C364.869 9.07977 370.371 8.38413 375.873 8.63709C381.039 8.83946 384.461 9.87657 383.454 10.9137ZM359.032 7.05612C357.959 8.09324 352.457 8.78886 346.955 8.53592C341.454 8.33355 337.763 7.29644 339.106 6.25931C340.179 5.22219 345.681 4.57716 351.182 4.77953C356.684 4.98189 360.374 6.01901 359.032 7.05612ZM355.879 12.9373C354.537 14.1768 348.297 14.961 341.722 14.7207C335.147 14.4677 330.987 13.2915 332.262 12.052C333.604 10.8125 339.843 10.0284 346.418 10.2687C352.725 10.509 356.952 11.6979 355.879 12.9373Z" fill="black"/>
</svg>
