<svg width="409" height="15" viewBox="0 0 409 15" fill="none" xmlns="http://www.w3.org/2000/svg">
<path d="M13.6197 1.22352C13.6197 2.88478 13.6197 4.55654 13.6197 6.25213C24.9882 6.25213 36.1539 6.25213 47.5319 6.25213C47.5319 4.56989 47.5319 2.89813 47.5319 1.17775C50.5947 1.14818 53.4498 1.15581 56.4418 1.17298C56.4418 5.40243 56.4418 9.59754 56.4418 13.7927C55.0874 13.8937 50.656 13.9166 47.6405 13.8279C47.5083 13.3549 47.598 12.8695 47.5791 12.3851C47.565 11.8806 47.5744 11.3761 47.5744 10.8707C47.5744 10.3795 47.5744 9.88841 47.5744 9.39728C47.5744 8.90901 47.5744 8.42074 47.5744 7.94486C45.8755 7.85427 15.9557 7.84092 13.6952 7.92579C13.6952 9.87696 13.6952 11.8358 13.6952 13.8527C10.6701 13.8928 7.81974 13.8766 5.00237 13.8632C4.53045 13.5199 4.33224 2.31736 4.74282 1.25499C6.04532 1.1396 11.1326 1.11576 13.6197 1.22352Z" fill="black"/>
<path d="M223.813 11.7433C226.749 9.67671 229.679 7.6111 232.638 5.52642C235.541 5.52642 238.33 5.52642 241.416 5.52642C236.909 8.33016 232.464 11.0938 228.018 13.8594C225.248 13.8594 222.695 13.8594 219.863 13.8594C216.338 11.8196 212.794 9.76922 209.25 7.71887C209.137 7.71887 209.023 7.71791 208.905 7.71791C205.38 9.75873 201.855 11.7995 198.278 13.8709C195.772 13.8709 193.36 13.8718 190.944 13.8709C190.043 13.8709 189.925 13.7259 189.717 13.5962C188.344 12.7408 186.961 11.8863 185.588 11.0319C182.78 9.28286 179.972 7.53386 177.169 5.78391C177.065 5.72001 176.985 5.65421 176.89 5.59031C178.207 5.4816 181.85 5.45585 185.517 5.53309C188.438 7.58917 191.392 9.66622 194.347 11.7433C194.469 11.7471 194.592 11.7519 194.715 11.7557C198.108 9.68625 201.501 7.61778 204.927 5.52737C207.669 5.52737 210.335 5.52737 213.228 5.52737C216.617 7.59489 220.019 9.67004 223.422 11.7461C223.554 11.7452 223.686 11.7442 223.813 11.7433Z" fill="black"/>
<path d="M371.331 10.2938C361.105 10.2938 351.204 10.2938 341.322 10.2938C340.779 11.2322 343.828 12.2726 348.042 12.6188C350.208 12.7961 352.483 12.8591 354.795 12.8076C358.179 12.7322 360.822 12.4261 362.105 11.7404C364.923 11.7404 367.664 11.7404 370.605 11.7404C370.515 11.8673 370.52 11.9731 370.364 12.0695C369.231 12.7656 366.938 13.2692 363.823 13.6191C354.177 14.7015 337.797 14.3163 333.323 11.0376C331.968 10.0439 332.063 9.04066 333.521 8.04886C336.617 5.94415 345.725 5.01434 355.206 5.2518C363.837 5.46828 369.628 6.66797 370.93 8.44463C371.166 8.76696 371.251 9.09502 371.327 9.42212C371.378 9.69105 371.331 9.96189 371.331 10.2938ZM341.308 8.89284C344.234 8.98249 361.728 8.95292 363.115 8.86137C362.997 8.2024 361.496 7.50242 359.212 7.0809C356.829 6.64127 354.031 6.46198 350.831 6.58405C345.597 6.78241 341.68 7.72653 341.308 8.89284Z" fill="black"/>
<path d="M285.225 10.3003C274.8 10.3003 264.838 10.3003 254.875 10.3003C254.993 11.5382 258.235 12.4603 263.252 12.7245C269.047 13.0297 273.134 12.7188 275.932 11.7432C278.613 11.7432 281.355 11.7432 284.304 11.7432C284.229 11.8605 284.243 11.9673 284.087 12.0627C282.964 12.7588 280.68 13.2643 277.565 13.6162C268.004 14.6948 252.001 14.3066 247.282 11.2025C245.692 10.1582 245.701 9.10444 247.225 8.05733C250.406 5.87633 259.896 5.00755 269.08 5.25741C277.631 5.4901 283.37 6.67168 284.616 8.43784C285.031 9.02625 285.017 9.62705 285.225 10.3003ZM276.857 8.91181C276.541 7.50898 271.553 6.47236 265.725 6.5477C259.981 6.62113 254.639 7.81701 255.21 8.91181C262.374 8.91181 269.547 8.91181 276.857 8.91181Z" fill="black"/>
<path d="M65.6348 9.57945C65.9746 9.16651 66.1445 8.65726 66.8288 8.17758C70.085 5.89644 80.019 5.00096 89.5895 5.25749C99.566 5.52547 106.027 6.88824 107.367 8.92333C107.895 9.72154 107.626 10.5016 106.47 11.2684C103.988 12.9153 97.3338 13.9949 88.8581 14.1341C85.8047 14.1846 82.7797 14.1427 79.8585 13.9462C72.2181 13.4332 67.9189 12.3279 66.3238 10.7667C65.9557 10.4082 65.8897 10.0382 65.6348 9.57945ZM74.8373 9.99524C74.8373 10.576 75.9227 11.338 78.0322 11.9121C81.3404 12.8114 87.0365 13.0813 91.7179 12.5577C93.7189 12.3336 95.2904 12.0132 96.3097 11.6021C99.4102 10.35 99.4621 9.07973 96.4371 7.82568C95.7198 7.52909 94.5353 7.2573 93.2847 7.03892C90.8071 6.60786 87.8529 6.46196 84.5872 6.59642C81.3262 6.73089 78.9808 7.11425 77.3054 7.675C75.4791 8.28725 74.8137 8.96339 74.8373 9.99524Z" fill="black"/>
<path d="M159.155 6.92254C151.208 6.92254 143.747 6.92254 136.154 6.92254C136.154 6.43999 136.154 5.99845 136.154 5.52734C147.523 5.52734 158.83 5.52734 170.246 5.52734C170.562 5.98987 170.529 6.38658 168.971 6.78998C162.336 8.51132 155.871 10.2594 149.349 11.9979C148.91 12.1152 148.499 12.2363 147.858 12.4165C150.675 12.4528 153.195 12.4318 155.71 12.4356C158.273 12.4394 160.84 12.4366 163.403 12.4366C165.946 12.4366 168.49 12.4366 171.142 12.4366C171.142 12.9353 171.142 13.3778 171.142 13.848C159.519 13.848 148.009 13.848 136.39 13.848C135.975 13.4207 135.994 13.0469 137.461 12.6664C144.219 10.9126 150.85 9.13883 157.523 7.37171C157.966 7.25536 158.386 7.13425 159.155 6.92254Z" fill="black"/>
<path d="M125.366 13.8746C123.195 13.8746 121.114 13.8765 119.037 13.8737C118.514 13.8727 117.99 13.8556 117.343 13.8441C117.343 9.62038 117.343 5.41573 117.343 1.18628C120.038 1.18628 122.643 1.18628 125.229 1.18628C125.649 1.48477 125.8 13.2023 125.366 13.8746Z" fill="black"/>
<path d="M322.643 13.8498C319.93 13.8498 317.329 13.8498 314.602 13.8498C314.602 9.62038 314.602 5.41573 314.602 1.19677C315.144 1.18342 315.607 1.16435 316.065 1.16339C318.212 1.15958 320.364 1.16149 322.454 1.16149C322.907 1.48478 323.058 13.208 322.643 13.8498Z" fill="black"/>
<path d="M381.935 5.5379C382.299 5.5255 382.686 5.50261 383.073 5.50166C385.291 5.49784 387.509 5.49975 390.015 5.49975C390.015 5.96704 390.015 6.40286 390.015 6.83963C390.175 6.85298 390.331 6.86729 390.491 6.88064C392.261 6.20545 394.621 5.66759 398.259 5.41964C400.595 5.26038 403.167 5.19649 405.352 5.26515C405.734 5.7477 406.126 6.23978 406.537 6.76334C405.206 6.79481 404.007 6.81484 402.827 6.85394C401.435 6.89971 400.024 6.94072 398.67 7.01987C392.936 7.35556 390.161 8.0851 390.095 9.29338C390.029 10.5341 390.076 11.7757 390.071 13.0164C390.071 13.2854 390.071 13.5543 390.071 13.8413C389.316 13.8557 388.792 13.8728 388.269 13.8738C386.187 13.8766 384.111 13.8747 382.091 13.8747C381.633 13.5419 381.525 6.0214 381.935 5.5379Z" fill="black"/>
<path d="M295.536 13.8222C295.536 11.0528 295.536 8.30536 295.536 5.52832C298.292 5.52832 300.949 5.52832 303.7 5.52832C303.7 8.30059 303.7 11.049 303.7 13.7946C302.266 13.8938 297.981 13.9109 295.536 13.8222Z" fill="black"/>
<path d="M304.111 1.19397C304.149 1.36372 304.2 1.49723 304.2 1.63074C304.21 2.18672 304.205 2.7427 304.205 3.32538C301.091 3.32538 298.16 3.32538 295.097 3.32538C295.097 2.61682 295.097 1.91684 295.097 1.19397C298.113 1.19397 300.991 1.19397 304.111 1.19397Z" fill="black"/>
</svg>
